<?xml version="1.0" standalone="no"?>
<!DOCTYPE svg PUBLIC "-//W3C//DTD SVG 20010904//EN"
 "http://www.w3.org/TR/2001/REC-SVG-20010904/DTD/svg10.dtd">
<svg version="1.0" xmlns="http://www.w3.org/2000/svg"
 width="70.000000pt" height="70.000000pt" viewBox="0 0 70.000000 70.000000"
 preserveAspectRatio="xMidYMid meet">
<metadata>
Created by potrace 1.11, written by Peter Selinger 2001-2013
</metadata>
<g transform="translate(0.000000,70.000000) scale(0.100000,-0.100000)"
fill="#000000" stroke="none">
<path d="M166 450 c-130 -128 -148 -149 -141 -169 6 -19 12 -22 36 -17 l29 6
0 -70 c0 -42 5 -72 12 -76 21 -13 477 -7 493 6 10 9 15 32 15 75 0 58 2 63 20
58 20 -5 50 11 50 27 0 10 -264 275 -293 295 -45 29 -66 16 -221 -135z m372
-227 l-3 -36 -187 -1 c-119 -1 -188 3 -189 9 -7 57 1 71 96 162 l96 93 95 -96
c88 -89 95 -98 92 -131z"/>
<path d="M258 323 c-15 -4 -16 -7 -4 -18 7 -7 12 -30 11 -49 -1 -24 3 -36 12
-36 9 0 13 15 13 49 0 53 -4 60 -32 54z"/>
<path d="M323 323 c-22 -8 -14 -22 15 -25 l27 -3 -32 -32 c-17 -17 -29 -34
-26 -37 10 -10 73 -7 73 4 0 6 -9 10 -20 10 -20 0 -20 0 1 21 11 11 19 27 17
36 -3 17 -36 33 -55 26z"/>
<path d="M394 318 c-5 -7 10 -12 29 -9 11 2 8 -17 -4 -25 -8 -5 -6 -10 5 -16
24 -13 19 -28 -9 -28 -14 0 -25 -5 -25 -11 0 -17 62 -6 74 14 8 13 8 20 -3 26
-8 5 -12 15 -9 22 3 8 5 18 4 24 -1 11 -55 14 -62 3z"/>
</g>
</svg>
